<svg id="visual" viewBox="0 0 900 600" width="900" height="600" xmlns="http://www.w3.org/2000/svg" xmlns:xlink="http://www.w3.org/1999/xlink" version="1.1"><path d="M0 401L129 359L257 368L386 394L514 362L643 399L771 381L900 441L900 601L771 601L643 601L514 601L386 601L257 601L129 601L0 601Z" fill="#fa7268"></path><path d="M0 395L129 428L257 460L386 395L514 449L643 434L771 476L900 410L900 601L771 601L643 601L514 601L386 601L257 601L129 601L0 601Z" fill="#ef5f67"></path><path d="M0 457L129 485L257 449L386 441L514 451L643 492L771 482L900 465L900 601L771 601L643 601L514 601L386 601L257 601L129 601L0 601Z" fill="#e34c67"></path><path d="M0 498L129 485L257 537L386 524L514 500L643 503L771 486L900 504L900 601L771 601L643 601L514 601L386 601L257 601L129 601L0 601Z" fill="#d53867"></path><path d="M0 547L129 534L257 569L386 528L514 558L643 556L771 527L900 573L900 601L771 601L643 601L514 601L386 601L257 601L129 601L0 601Z" fill="#c62368"></path></svg>