<svg id="visual" viewBox="0 0 960 540" width="960" height="540" xmlns="http://www.w3.org/2000/svg" xmlns:xlink="http://www.w3.org/1999/xlink" version="1.1"><g><g transform="translate(941 328)"><path d="M37 -17C46.8 -4.4 52.9 14.8 46.1 28.6C39.2 42.4 19.6 50.8 0.2 50.7C-19.1 50.5 -38.3 41.8 -49.5 25.5C-60.8 9.1 -64.1 -14.9 -54.5 -27.3C-44.9 -39.8 -22.5 -40.6 -4.4 -38.1C13.6 -35.5 27.2 -29.6 37 -17Z" stroke="#001122" fill="none" stroke-width="20"></path></g><g transform="translate(53 365)"><path d="M35.5 -16.6C44.3 -5.3 48.5 12.6 41.8 24.8C35.1 37.1 17.6 43.7 3.2 41.9C-11.2 40 -22.4 29.7 -28.9 17.6C-35.5 5.4 -37.3 -8.6 -31.7 -18C-26.1 -27.4 -13.1 -32.3 0.2 -32.4C13.4 -32.4 26.7 -27.8 35.5 -16.6Z" stroke="#001122" fill="none" stroke-width="20"></path></g><g transform="translate(504 280)"><path d="M28.7 -18.6C35.5 -4.9 38 9.2 32.5 23.4C27 37.5 13.5 51.6 -0.8 52.1C-15.1 52.5 -30.2 39.3 -39.1 23.2C-47.9 7.2 -50.6 -11.8 -43.1 -26C-35.5 -40.2 -17.8 -49.6 -3.4 -47.7C11 -45.7 22 -32.4 28.7 -18.6Z" stroke="#001122" fill="none" stroke-width="20"></path></g><g transform="translate(258 149)"><path d="M35.1 -18.9C42.8 -6.9 44.5 9.9 37.7 21.9C30.8 33.8 15.4 41 -2.3 42.3C-20 43.6 -40 39.1 -50.2 25.2C-60.3 11.3 -60.7 -12 -50.7 -25.2C-40.7 -38.5 -20.4 -41.8 -3.3 -39.8C13.7 -37.9 27.4 -30.8 35.1 -18.9Z" stroke="#001122" fill="none" stroke-width="20"></path></g><g transform="translate(593 445)"><path d="M26.1 -15.9C31 -6.4 30.5 5.4 25.2 13.5C19.9 21.6 10 25.9 0.2 25.8C-9.5 25.7 -19.1 21.1 -25.1 12.6C-31.2 4 -33.8 -8.5 -29 -17.9C-24.3 -27.3 -12.1 -33.5 -0.8 -33.1C10.5 -32.6 21.1 -25.4 26.1 -15.9Z" stroke="#001122" fill="none" stroke-width="20"></path></g><g transform="translate(755 38)"><path d="M39.7 -19.7C48.8 -7.2 51.8 12.2 44.1 23C36.4 33.8 18.2 36.1 2.8 34.5C-12.6 32.9 -25.2 27.4 -31.3 17.4C-37.4 7.5 -37 -6.8 -30.7 -17.7C-24.4 -28.7 -12.2 -36.3 1.6 -37.2C15.3 -38.1 30.6 -32.3 39.7 -19.7Z" stroke="#001122" fill="none" stroke-width="20"></path></g><g transform="translate(733 316)"><path d="M33.4 -18.4C42.4 -3.7 48.2 13.7 42.1 29.3C35.9 44.9 18 58.7 1.5 57.8C-14.9 56.9 -29.8 41.4 -38.7 24.2C-47.6 7 -50.5 -11.9 -43 -25.7C-35.6 -39.5 -17.8 -48.2 -2.8 -46.6C12.2 -45 24.4 -33 33.4 -18.4Z" stroke="#001122" fill="none" stroke-width="20"></path></g><g transform="translate(65 112)"><path d="M42.5 -20C53.6 -5.3 60 16.5 52.2 28.9C44.3 41.2 22.2 44.1 4.3 41.6C-13.6 39.1 -27.2 31.3 -36.5 18.2C-45.8 5 -50.8 -13.6 -44 -25.8C-37.2 -37.9 -18.6 -43.7 -1.4 -42.9C15.7 -42 31.4 -34.6 42.5 -20Z" stroke="#001122" fill="none" stroke-width="20"></path></g><g transform="translate(349 315)"><path d="M36.7 -22.5C43.7 -9 42.9 7.6 35.5 19.2C28.1 30.9 14 37.4 -0.2 37.5C-14.4 37.6 -28.7 31.2 -36.1 19.6C-43.6 8 -44 -8.8 -36.9 -22.4C-29.7 -35.9 -14.8 -46.1 0 -46.1C14.8 -46.1 29.7 -35.9 36.7 -22.5Z" stroke="#001122" fill="none" stroke-width="20"></path></g></g></svg>